<?xml version="1.0" encoding="UTF-8" standalone="no"?>
<!DOCTYPE svg PUBLIC "-//W3C//DTD SVG 1.1//EN" "http://www.w3.org/Graphics/SVG/1.1/DTD/svg11.dtd">
<svg width="100%" height="100%" viewBox="0 0 366 366" version="1.1" xmlns="http://www.w3.org/2000/svg" xmlns:xlink="http://www.w3.org/1999/xlink" xml:space="preserve" xmlns:serif="http://www.serif.com/" style="fill-rule:evenodd;clip-rule:evenodd;stroke-linecap:round;stroke-linejoin:round;stroke-miterlimit:1.5;">
    <g id="Artboard1" transform="matrix(0.596091,0,0,0.620339,-154.983713,-340.566102)">
        <rect x="260" y="549" width="614" height="590" style="fill:none;"/>
        <g transform="matrix(1.677596,0,0,1.612022,-540.213115,-603.595628)">
            <g>
                <path d="M507,809C554.88214,792.48941 561.93729,772.47718 610,774C663.09546,775.68228 680.65788,818.23443 735,819C767.50022,819.45786 788.00671,801.23522 800,791" style="fill:none;stroke:#c4572a;stroke-width:10.42px;"/>
            </g>
            <g transform="matrix(1,0,0,1,-14,81)">
                <path d="M497,815C520.88214,794.48941 542.93729,777.47718 575,779C628.06229,781.5202 641.65788,820.23443 696,821C728.50022,821.45786 804.00671,767.23522 841,769" style="fill:none;stroke:#c4572a;stroke-width:10.42px;"/>
            </g>
            <g transform="matrix(1,0,0,1,-12,120)">
                <path d="M499,811C522.88214,790.48941 542.93729,777.47718 575,779C628.06229,781.5202 641.65788,820.23443 696,821C728.50022,821.45786 804.00671,767.23522 841,769" style="fill:none;stroke:#c4572a;stroke-width:10.42px;"/>
            </g>
            <g transform="matrix(1,0,0,1,-46,180)">
                <path d="M546.53885,782.00875C555.33117,778.30672 564.38918,778.49604 575,779C628.06229,781.5202 641.65609,821.62534 696,821C747.7297,820.40474 794.40744,766.51526 822.84586,767.58543C843.25809,768.35356 864.70822,784.79526 869,785" style="fill:none;stroke:#c4572a;stroke-width:10.42px;"/>
            </g>
            <g transform="matrix(1,0,0,1,-49,220)">
                <path d="M551.16608,744.70435C627.96182,749.31648 630.33726,805.94565 703,813C750.91975,817.65221 793.40744,767.51526 821.84586,768.58543C842.25809,769.35356 842.70822,773.79526 855,778" style="fill:none;stroke:#c4572a;stroke-width:10.42px;"/>
            </g>
            <g transform="matrix(1,0,0,1,-14,48)">
                <path d="M504,814C551.88214,797.48941 563.93729,761.47718 612,763C665.09546,764.68228 678.65788,795.23443 733,796C765.50022,796.45786 790.00671,764.23522 802,754" style="fill:none;stroke:#c4572a;stroke-width:10.42px;"/>
            </g>
        </g>
        <g transform="matrix(1.893069,0,0,1.923195,-638.607519,-801.026573)">
            <ellipse cx="637" cy="855.5" rx="157" ry="148.5" style="fill:none;stroke:#c4572a;stroke-width:8.97px;"/>
        </g>
        <g transform="matrix(1.677596,0,0,1.612022,-540.213115,-603.595628)">
            <path d="M681.89308,796.88117C668.13956,790.15651 655.00961,783.56552 654.06999,783.23273C605.21686,765.93038 601.95502,773.87738 579.02756,774.84665C574.25609,775.04836 572.57196,775.92368 570.3187,776.9895C568.23634,777.97449 565.80258,779.07447 561.51646,780.09319C558.45508,780.82081 553.26442,782.22262 527.10409,799.14295C524.87385,800.58545 521.91179,800.09053 520.27164,798.00134C518.6315,795.91215 518.85385,792.91727 520.78454,791.09319C523.79392,788.24998 523.46739,788.12814 525.84156,784.70088C527.81525,781.85174 530.62641,779.42251 533.79822,777.1669C537.59361,774.46784 541.97489,772.0232 545.34621,768.82197C557.14914,757.6145 563.94417,752.35386 568.66613,749.82942C576.40797,740.62414 584.52664,738.15481 601.90004,734.02521C616.95065,730.44773 616.65254,729.85638 631.42542,725.41134C646.90874,720.75254 647.34546,721.37512 708.67219,730.83704C715.84194,731.94324 721.07521,734.69121 725.32825,737.04761C727.4019,738.19652 729.12513,739.28193 730.78966,739.67989C743.00008,742.59918 742.58133,743.45716 751.68731,750.21261C755.27746,752.87603 787.9316,777.32316 794.14828,786.53631L794.96494,788.35259L795.08448,790.54117L794.3578,792.64222L792.95342,794.33033C792.19159,794.99656 790.87362,795.77638 789.17172,796.53099C786.81862,797.57435 783.36049,798.76441 780.85913,800.42175C756.69336,816.43336 755.46806,815.19954 726.44659,814.18198C717.10497,813.85445 712.71746,812.5211 708.35769,810.81596C707.97387,810.66584 707.59042,810.51187 707.20282,810.3546C700.18786,809.03786 696.19304,807.16245 692.14297,805.57271C690.4763,804.9185 689.33218,803.48168 688.98882,801.83485C688.25059,801.60633 687.90637,801.52141 686.56286,801.40379C684.08937,801.18725 682.1754,799.25375 681.89308,796.88117Z" style="fill:#c4572a;stroke:none;"/>
        </g>
        <g transform="matrix(1.677596,0,0,1.612022,-540.213115,-603.595628)">
            <path d="M658.9305,894.57534C657.12234,894.59459 646.62054,894.11735 627.03321,881.84633C606.23021,868.81373 605.51847,870.19821 604.66599,869.80927C603.01932,869.058 597.16205,864.24156 590.95351,863.87463C587.2558,863.65609 584.72416,862.98639 582.10895,862.1513C578.05101,860.85552 573.66343,859.14 558.32695,859.65537C538.75398,860.3131 538.48475,860.28541 520.99992,869.00721C505.84946,876.56457 504.32946,876.7046 498.35459,882.74147C495.11857,886.01106 489.93999,886.32016 486.33802,883.45871C482.73605,880.59726 481.86589,875.48296 484.31887,871.5913L485.79447,869.25027C486.21649,868.58073 486.72484,867.96966 487.3064,867.43284C487.78066,866.99506 489.37246,865.92052 491.71747,864.41957C493.53761,863.03329 495.52004,861.80302 498.29485,860.29795C511.0988,852.38335 531.07921,840.4533 536.71552,836.93167L536.9353,836.79339C543.58806,829.31868 550.99682,825.91153 558.32695,823.48565C563.67568,821.71552 568.99458,820.82518 573.33795,817.74846C578.45884,814.12097 588.01035,812.57178 599.24304,813.44751C620.88035,815.13441 649.4611,824.24785 653.67169,826.62698C677.34782,840.00482 678.01482,838.51068 690.46459,841.7136C692.56026,842.25275 694.37468,843.52213 695.59873,845.2666C697.70032,844.69223 699.41679,844.92638 701.29409,844.9241C717.25197,844.90471 719.53604,851.47567 747.21475,835.36875C752.55959,832.25846 753.0707,833.12595 757.67509,828.99312C761.89954,825.20132 765.42282,824.74344 775.92339,813.2848C780.71907,808.05156 780.95346,808.24552 787.09859,805.10736C787.70523,804.48247 788.40613,803.9414 789.18625,803.50901C791.15925,796.86591 797.45822,795.18084 798.46678,794.92636C800.6008,794.38789 802.8413,795.26364 804.04451,797.10653C807.772,802.81573 808.03322,802.72984 810.77105,808.83473C811.12742,809.37558 814.86375,815.05558 817.50948,819.46351C819.8934,823.43527 821.90845,827.39027 822.43406,829.55514C824.03361,836.14346 824.64168,835.89695 826.57665,842.4549C827.13309,844.34074 826.5683,846.37887 825.12061,847.70935C823.67291,849.03983 821.59445,849.43093 819.76218,848.71763C818.4031,848.18854 816.44288,848.48067 814.55747,848.77178C810.20183,849.4443 806.09428,850.82712 805.73457,850.87043C792.74072,852.43501 787.25536,855.60519 782.79785,858.47224C779.07187,860.86878 775.87361,862.99486 770.85387,864.24909C764.17833,865.91703 761.17722,867.58001 758.12084,869.42453C754.49082,871.61526 750.78661,874.0019 742.5762,876.79775C735.24193,879.29524 732.67477,881.25652 730.52114,882.59207C728.38258,883.91827 726.51794,884.82932 723.01207,885.30122C717.95554,885.98183 709.93522,890.17635 700.95686,893.52067C690.54752,897.39801 679.04387,900.17143 668.93417,897.54698C667.75681,897.24134 665.33571,897.06492 663.60438,896.73125C662.02627,896.42711 660.76142,895.93298 660.04221,895.48197L659.00889,894.67048L658.9305,894.57534Z" style="fill:#c4572a;stroke:none;"/>
        </g>
        <g transform="matrix(1.677596,0,0,1.612022,-540.213115,-603.595628)">
            <path d="M767.24704,945.36623C767.16045,945.43662 767.07765,945.51022 766.99888,945.58734C765.48531,947.06928 764.08658,947.96114 761.93974,948.87883C758.21192,950.47233 749.67128,952.84739 715.06488,977.36605C714.81539,977.54281 688.79117,992.27314 665.34396,998.29141C653.93002,1001.22106 643.04674,1001.90189 635.27153,999.18416C616.18054,992.51116 614.88001,995.96627 598.26618,984.37708C581.63433,972.77531 552.44404,961.56888 540.19723,956.33417C539.26835,955.93713 538.4099,955.54892 537.62451,955.17609L536.06624,955.37714C519.71883,957.50255 520.093,958.36797 503.43801,958.95613C498.78833,959.12033 494.77725,955.71964 494.17854,951.10575C493.17055,943.33773 494.36157,943.26305 491.45239,936.13933C489.84575,932.20513 491.20435,927.68316 494.71324,925.2859C502.93769,919.66699 514.93325,910.31997 524.68524,907.58682C566.45996,895.8788 594.36031,906.19354 614.71575,917.44646C626.40286,923.90734 635.06182,930.99882 642.58122,932.86137C697.16107,946.38074 713.77085,935.5897 753.18907,915.53132C779.01035,902.39188 817.58227,891.0104 823.94771,889.8122C826.61255,889.31059 829.36163,890.03497 831.43325,891.78464C833.50488,893.5343 834.67902,896.12343 834.63036,898.83462C833.90872,939.04038 831.57038,940.48399 829.85747,952.43542C829.43332,955.39487 827.56976,957.95161 824.88221,959.26131C822.19466,960.57101 819.03267,960.46333 816.44044,958.97382C812.93917,956.96198 797.46453,948.21323 767.81289,945.43724C767.62271,945.41944 767.43402,945.39571 767.24704,945.36623Z" style="fill:#c4572a;stroke:none;"/>
        </g>
        <g transform="matrix(1.677596,0,0,1.612022,-540.213115,-603.595628)">
            <path d="M642.78782,1031.76962C659.37561,1033.66173 682.8377,1025.40983 703.69866,1016.92503C727.23925,1007.35034 747.84033,997.3444 754.19537,996.62637C755.52161,996.47652 757.65103,996.17758 760.10377,995.81425C761.67752,992.16485 765.49049,989.94364 769.49591,990.44274C777.00314,991.37819 779.96463,991.92021 783.73068,992.65829C788.20172,992.31976 789.87636,992.48098 796.45522,995.24264C800.68448,997.01799 802.90684,1001.68558 801.61888,1006.08782C800.39934,1010.25624 796.40055,1012.92865 792.1425,1012.53503C792.13546,1013.53556 791.9971,1014.49319 791.75094,1015.38963L790.32447,1018.35693C790.06361,1018.7192 789.45361,1019.46835 788.43553,1020.44226C783.41995,1025.24019 758.98028,1045.44356 752.23559,1048.88965C743.82775,1053.18551 677.3292,1080.35446 639.26996,1073.14287C601.03959,1065.89886 600.53525,1067.12489 571.44159,1050.20997C549.57633,1037.49761 513.82563,1004.41399 505.78303,992.45509C502.49277,987.56266 502.50866,983.42629 503.01424,981.49445L504.32317,978.71635C501.51534,976.90024 499.82996,973.58604 500.26242,970.04621C500.86589,965.10675 505.36604,961.58646 510.3055,962.18993C537.99858,965.57325 538.49893,966.41099 574.21701,996.12592C583.18504,1003.58669 611.05457,1017.86934 629.06086,1026.10131C635.20445,1028.90999 642.09935,1031.51117 642.78782,1031.76962Z" style="fill:#c4572a;stroke:none;"/>
        </g>
    </g>
</svg>
